# xmcd
#
# Track frame offsets:
#	150
#	31157
#	56265
#	99642
#	142215
#	178897
#	198617
#	225222
#	252072
#	283597
#	311695
#
# Disc length: 4474 seconds
#
# Revision: 2
# Processed by: cddbd v1.5.1PL0 Copyright (c) Steve Scherf et al.
# Submitted via: audiograbber 1.83.01
#
DISCID=9711780b
DTITLE=Sharin - Land of Dreams - Eternity
DYEAR=1900
DGENRE=New Age
TTITLE0=Lightness
TTITLE1=Tender Hands
TTITLE2=Musical Touch
TTITLE3=Consolation
TTITLE4=Soeria
TTITLE5=Hearts in Harmony
TTITLE6=Marlene
TTITLE7=Future
TTITLE8=Children's Fun
TTITLE9=Going Home
TTITLE10=Eternity
EXTD=
EXTT0=
EXTT1=
EXTT2=
EXTT3=
EXTT4=
EXTT5=
EXTT6=
EXTT7=
EXTT8=
EXTT9=
EXTT10=
PLAYORDER=
